<?xml version="1.0" standalone="no"?>
<!DOCTYPE svg PUBLIC "-//W3C//DTD SVG 20010904//EN"
 "http://www.w3.org/TR/2001/REC-SVG-20010904/DTD/svg10.dtd">
<svg version="1.0" xmlns="http://www.w3.org/2000/svg"
 width="600.000000pt" height="600.000000pt" viewBox="0 0 600.000000 600.000000"
 preserveAspectRatio="xMidYMid meet">
<metadata>
Created by potrace 1.11, written by Peter Selinger 2001-2013
</metadata>
<g transform="translate(0.000000,600.000000) scale(0.100000,-0.100000)"
fill="#000000" stroke="none">
<path d="M2015 5371 c-69 -51 -132 -107 -180 -162 -18 -21 -75 -57 -145 -92
-359 -182 -659 -465 -820 -774 -18 -35 -36 -63 -41 -63 -4 0 -29 11 -56 24
-58 29 -183 72 -238 81 -22 3 -61 10 -88 14 -49 8 -234 6 -277 -3 -14 -3 -49
-11 -78 -17 -30 -6 -62 -20 -73 -32 -20 -20 -21 -30 -15 -137 7 -140 10 -156
46 -295 47 -182 137 -355 251 -480 48 -52 188 -165 206 -165 4 0 18 -8 29 -18
19 -15 23 -31 28 -117 10 -167 25 -258 74 -432 l28 -98 -66 -1 c-156 0 -290
-35 -453 -118 -132 -68 -158 -94 -141 -143 7 -22 44 -49 164 -121 246 -149
319 -208 560 -457 299 -309 495 -503 561 -555 39 -30 76 -60 82 -65 60 -52
393 -245 422 -245 6 0 15 -4 21 -9 32 -30 440 -171 564 -195 84 -16 138 -27
160 -31 14 -3 43 -7 65 -10 22 -3 51 -7 65 -10 96 -19 464 -26 635 -12 106 8
143 13 250 32 44 8 91 16 105 19 130 22 417 108 585 176 74 29 105 43 250 111
81 37 298 164 413 240 462 308 782 691 947 1134 57 152 83 246 112 400 23 121
27 167 27 340 1 176 -8 358 -19 375 -2 3 -6 26 -10 50 -22 163 -108 416 -212
625 -110 222 -324 495 -535 682 -294 261 -704 467 -1128 569 l-115 28 -648 3
c-714 4 -701 5 -990 -64 l-109 -26 -44 44 c-61 60 -87 60 -169 0z m1505 -56
c74 -3 148 -8 163 -10 15 -2 60 -6 100 -10 40 -4 74 -9 77 -10 3 -2 26 -6 50
-10 25 -3 52 -8 60 -10 8 -2 31 -7 50 -10 155 -26 479 -140 626 -221 128 -70
164 -91 234 -138 204 -136 366 -286 530 -491 243 -306 399 -687 437 -1075 10
-96 10 -346 1 -430 -24 -210 -94 -452 -191 -661 -49 -106 -196 -341 -237 -379
-3 -3 -23 -27 -45 -55 -43 -54 -196 -209 -260 -264 -22 -18 -74 -59 -115 -90
-41 -31 -77 -58 -80 -61 -15 -15 -100 -70 -108 -70 -6 0 -12 -4 -14 -8 -4 -12
-188 -122 -312 -187 -91 -48 -254 -119 -436 -189 -117 -45 -454 -127 -585
-142 -27 -4 -53 -8 -56 -10 -13 -8 -239 -19 -374 -18 -169 0 -318 11 -420 30
-16 3 -43 8 -60 10 -139 21 -388 92 -549 155 -192 77 -424 202 -541 292 -111
86 -320 275 -312 283 1 2 36 -6 77 -16 96 -25 125 -25 151 1 24 24 23 59 -4
169 l-14 55 88 -9 c152 -16 169 17 99 189 -22 54 -40 102 -40 106 0 19 200 43
350 42 185 -1 209 -8 385 -114 63 -39 141 -79 173 -91 77 -27 221 -33 293 -12
137 41 235 152 254 287 3 23 8 56 11 72 3 17 7 104 9 195 3 91 6 174 9 185 2
11 5 28 5 38 1 13 24 29 76 53 126 58 258 97 440 129 119 21 422 25 730 10
220 -10 407 -11 499 -2 318 33 577 219 730 525 20 39 36 82 36 96 0 49 -54 79
-105 60 -9 -4 -30 -36 -47 -73 -101 -215 -275 -375 -477 -437 -126 -39 -258
-45 -601 -29 -91 5 -188 9 -216 10 -27 1 -55 5 -61 8 -7 5 -10 42 -8 110 12
364 198 656 535 838 57 30 68 41 75 72 8 32 -9 65 -41 78 -31 11 -83 -10 -183
-73 -223 -139 -386 -340 -464 -568 -39 -116 -59 -225 -62 -343 -2 -60 -5 -110
-7 -112 -2 -2 -57 -6 -123 -10 -149 -8 -173 -10 -258 -24 -127 -21 -289 -66
-379 -105 -21 -9 -39 -16 -42 -16 -6 0 43 137 75 208 56 124 174 301 278 415
72 79 78 111 32 157 -28 29 -28 29 -9 47 34 31 49 69 38 97 -13 34 -39 46
-104 46 -55 0 -56 0 -77 43 -67 130 -224 311 -366 420 -77 59 -197 134 -290
181 l-71 35 -1 88 c-1 48 -3 97 -5 108 -11 59 -16 91 -16 97 0 4 -14 47 -31
95 -35 98 -84 201 -136 282 -19 29 -33 54 -31 56 5 4 130 33 168 40 19 3 60
10 90 15 30 5 73 12 95 15 23 3 51 7 64 10 13 2 49 7 80 10 31 4 72 8 91 11
19 2 107 7 195 10 88 4 161 7 162 8 2 2 98 -2 243 -9z m-1362 -127 c123 -155
200 -307 235 -463 17 -72 18 -276 2 -340 -15 -61 -9 -92 20 -111 34 -22 83
-10 98 24 6 15 12 28 13 30 3 5 78 -34 149 -76 219 -130 399 -315 486 -498 21
-45 45 -84 54 -88 14 -5 14 -8 -1 -31 -22 -33 -11 -71 26 -94 l30 -18 -69 -89
c-162 -212 -257 -406 -314 -650 -34 -142 -36 -161 -42 -339 -5 -170 -13 -265
-23 -282 -4 -6 -31 -14 -61 -17 -90 -9 -176 -66 -219 -142 -9 -17 -14 -17 -63
-5 -29 8 -108 48 -180 91 -120 73 -181 101 -254 115 -50 10 -327 14 -380 5
-104 -18 -122 -21 -202 -41 -85 -21 -249 -75 -315 -103 l-37 -16 14 41 c22 60
19 85 -12 109 -20 15 -36 20 -58 16 -16 -3 -49 -8 -72 -12 l-41 -6 0 54 c1 46
-8 75 -51 173 -68 152 -125 323 -150 450 -28 141 -30 155 -37 300 -4 72 -10
137 -14 145 -5 8 -26 24 -47 35 -284 146 -461 442 -497 832 l-6 61 63 8 c184
22 336 -3 513 -85 102 -48 171 -92 263 -169 57 -48 79 -61 98 -57 38 6 63 34
63 68 0 31 -39 75 -140 157 l-43 36 38 69 c133 243 309 432 552 594 112 74
130 82 119 55 -19 -48 -55 -185 -62 -234 -11 -73 -11 -270 -1 -345 5 -33 15
-70 23 -82 20 -31 61 -40 93 -20 25 16 26 19 22 99 -13 245 -5 353 35 475 47
145 98 228 206 336 53 53 104 97 112 97 8 0 37 -28 64 -62z m-1470 -2733 c23
-3 42 -10 42 -15 0 -5 16 -42 35 -83 27 -58 35 -86 35 -131 0 -97 42 -153 127
-171 l32 -6 -14 -38 c-10 -30 -10 -43 0 -67 29 -68 93 -86 170 -47 45 23 229
93 244 93 9 0 51 -82 51 -101 0 -4 -19 -6 -42 -3 -100 12 -129 9 -149 -15 -23
-28 -23 -49 -4 -121 8 -30 15 -61 15 -68 0 -14 -18 -12 -135 19 -44 11 -92 23
-107 26 -17 3 -68 48 -145 127 -233 239 -351 339 -534 448 -49 29 -89 57 -89
61 0 10 79 44 160 69 106 31 199 39 308 23z"/>
<path d="M2020 4843 c-69 -25 -140 -164 -157 -307 -11 -93 -7 -204 8 -222 23
-28 57 -35 88 -19 37 19 40 28 40 128 0 47 3 97 6 113 15 65 38 125 45 117 28
-30 85 -201 95 -288 9 -76 84 -106 128 -52 17 21 18 58 3 132 -29 142 -104
302 -170 363 -45 41 -56 46 -86 35z"/>
<path d="M431 3913 c-38 -26 -42 -55 -20 -135 41 -148 130 -294 225 -366 66
-51 105 -50 140 3 21 32 8 54 -71 127 -58 53 -119 148 -140 217 -7 22 -5 23
27 16 47 -10 94 -36 165 -89 67 -51 102 -57 133 -26 32 32 26 71 -17 112 -51
49 -135 100 -208 127 -77 29 -202 37 -234 14z"/>
<path d="M2838 3333 c-8 -10 -18 -33 -21 -50 -25 -133 -113 -211 -256 -228
-67 -8 -96 -47 -78 -101 16 -48 106 -52 217 -12 117 44 192 122 235 244 26 75
26 129 -2 149 -25 20 -77 18 -95 -2z"/>
<path d="M1924 2620 c-11 -5 -37 -31 -57 -59 -43 -59 -106 -108 -151 -116 -67
-11 -82 -11 -140 1 -50 10 -65 10 -87 -1 -32 -17 -44 -56 -28 -88 15 -28 25
-35 69 -47 101 -28 234 -13 312 35 81 51 164 145 172 197 8 52 -42 95 -90 78z"/>
</g>
</svg>
